HIERARCHY
ROOT Hips
{
	OFFSET	0.00	0.00	0.00
	CHANNELS 6 Xposition Yposition Zposition Zrotation Xrotation Yrotation
	JOINT LeftUpLeg
	{
		OFFSET	 0.126116	-0.014019	-0.065224
		CHANNELS 3 Zrotation Xrotation Yrotation
		JOINT LeftLeg
		{
			OFFSET	 0.000000	 0.000000	 0.569914
			CHANNELS 3 Zrotation Xrotation Yrotation
			JOINT LeftFoot
			{
				OFFSET	 0.000000	 0.000000	 0.544423
				CHANNELS 3 Zrotation Xrotation Yrotation
				JOINT LeftToeBase
				{
					OFFSET	 0.000000	 0.000000	 0.207117
					CHANNELS 3 Zrotation Xrotation Yrotation
					End Site
					{
						OFFSET	 0.000000	 0.000000	 0.207117
					}
				}
			}
		}
	}
	JOINT RightUpLeg
	{
		OFFSET	-0.124023	-0.008373	-0.065224
		CHANNELS 3 Zrotation Xrotation Yrotation
		JOINT RightLeg
		{
			OFFSET	 0.000000	 0.000000	 0.570047
			CHANNELS 3 Zrotation Xrotation Yrotation
			JOINT RightFoot
			{
				OFFSET	 0.000000	 0.000000	 0.544354
				CHANNELS 3 Zrotation Xrotation Yrotation
				JOINT RightToeBase
				{
					OFFSET	 0.000000	 0.000000	 0.207540
					CHANNELS 3 Zrotation Xrotation Yrotation
					End Site
					{
						OFFSET	 0.000000	 0.000000	 0.207540
					}
				}
			}
		}
	}
	JOINT Spine
	{
		OFFSET	 0.000184	-0.007763	 0.117403
		CHANNELS 3 Zrotation Xrotation Yrotation
		JOINT Spine1
		{
			OFFSET	 0.000000	 0.000000	 0.137269
			CHANNELS 3 Zrotation Xrotation Yrotation
			JOINT Spine2
			{
				OFFSET	 0.000000	 0.000000	 0.156879
				CHANNELS 3 Zrotation Xrotation Yrotation
				JOINT LeftShoulder
				{
					OFFSET	 0.080501	-0.002496	 0.160144
					CHANNELS 3 Zrotation Xrotation Yrotation
					JOINT LeftArm
					{
						OFFSET	 0.000000	 0.000000	 0.164363
						CHANNELS 3 Zrotation Xrotation Yrotation
						JOINT LeftForeArm
						{
							OFFSET	 0.000000	 0.000000	 0.364576
							CHANNELS 3 Zrotation Xrotation Yrotation
							JOINT LeftHand
							{
								OFFSET	 0.000000	 0.000000	 0.360812
								CHANNELS 3 Zrotation Xrotation Yrotation
								JOINT LeftHandIndex1
								{
									OFFSET	 0.000000	 0.000000	 0.086006
									CHANNELS 3 Zrotation Xrotation Yrotation
									JOINT LeftHandIndex2
									{
										OFFSET	 0.000000	 0.000000	 0.047236
										CHANNELS 3 Zrotation Xrotation Yrotation
										JOINT LeftHandIndex3
										{
											OFFSET	-0.004284	-0.000551	 0.038166
											CHANNELS 3 Zrotation Xrotation Yrotation
											End Site
											{
												OFFSET	-0.004284	-0.000551	 0.038166
											}
										}
									}
								}
							}
						}
					}
				}
				JOINT Neck
				{
					OFFSET	 0.000000	 0.000000	 0.176489
					CHANNELS 3 Zrotation Xrotation Yrotation
					JOINT Head
					{
						OFFSET	 0.000000	-0.001747	 0.077940
						CHANNELS 3 Zrotation Xrotation Yrotation
						End Site
						{
							OFFSET	 0.000000	-0.001747	 0.077940
						}
					}
				}
				JOINT RightShoulder
				{
					OFFSET	-0.080363	 0.000306	 0.159706
					CHANNELS 3 Zrotation Xrotation Yrotation
					JOINT RightArm
					{
						OFFSET	 0.000000	 0.000000	 0.164196
						CHANNELS 3 Zrotation Xrotation Yrotation
						JOINT RightForeArm
						{
							OFFSET	 0.000000	 0.000000	 0.365611
							CHANNELS 3 Zrotation Xrotation Yrotation
							JOINT RightHand
							{
								OFFSET	 0.000000	 0.000000	 0.360648
								CHANNELS 3 Zrotation Xrotation Yrotation
								JOINT RightHandIndex1
								{
									OFFSET	 0.000000	 0.000000	 0.069977
									CHANNELS 3 Zrotation Xrotation Yrotation
									JOINT RightHandIndex2
									{
										OFFSET	 0.000000	 0.000000	 0.052305
										CHANNELS 3 Zrotation Xrotation Yrotation
										JOINT RightHandIndex3
										{
											OFFSET	 0.009002	-0.000782	 0.042196
											CHANNELS 3 Zrotation Xrotation Yrotation
											End Site
											{
												OFFSET	 0.009002	-0.000782	 0.042196
											}
										}
									}
								}
							}
						}
					}
				}
			}
		}
	}
}
MOTION
Frames:    6
Frame Time: 0.03333334
 0.012230	 0.060143	 1.198768	 5.282057	-1.146722	-3.393237	 0.435721	-13.113820	-171.475500	 1.074732	-39.756280	 0.461755	 51.464800	 80.936320	-55.544990	-2.369290	 31.633790	-0.070347	-6.189038	-30.617940	-175.066500	 11.726260	-53.152240	 10.047140	 33.157970	 80.760310	-30.032180	 2.358922	 33.006520	 0.103383	-1.196407	 8.610782	 1.167432	 0.638543	 2.215400	 2.010474	-5.160391	-2.569916	-2.383582	-93.998090	 58.962880	 175.261300	 22.175050	 40.958530	-30.585500	-1.455047	-0.922448	-8.870445	 1.542979	-3.793252	-7.659665	-4.868823	 19.277200	-2.793205	-3.876271	 21.540020	 2.197411	-4.805728	 5.575397	 0.145218	-0.062141	-5.088048	 0.198108	-7.076134	 2.054941	 2.248188	 89.758610	 61.681260	 179.944100	-19.618410	 52.351440	 9.127470	-1.668221	-2.802858	 14.097010	-5.017746	 11.263510	 0.503754	 6.288071	 24.388880	-0.539911	 1.944126	 44.222310	-7.045300	 0.618604	 23.869660	 3.521739
 0.011906	 0.054197	 1.196919	 5.785058	-0.685259	-3.414808	-0.010319	-13.586780	-171.470200	 1.290487	-40.225700	 0.605645	 52.316310	 81.087720	-56.568470	-2.368417	 31.776360	-0.073592	-7.513094	-31.920610	-175.155400	 12.581490	-52.724970	 10.685100	 64.033130	 83.467330	-61.886190	 2.359018	 32.993180	 0.103065	-1.483536	 8.303017	 1.053351	 0.660606	 1.955192	 2.172350	-5.253085	-2.553816	-2.434860	-94.123470	 58.983190	 174.991400	 22.394230	 40.500300	-30.159650	-1.658661	-1.058747	-10.513830	 1.988055	-4.042164	-8.092064	-4.864420	 19.389950	-2.800596	-3.869174	 21.630450	 2.190207	-4.804131	 5.594196	 0.144118	-0.036356	-5.106869	 0.235017	-7.082371	 2.033863	 2.171874	 89.710040	 61.769310	 179.827300	-19.266830	 52.665450	 8.398971	-2.070964	-2.946843	 14.276860	-5.136199	 11.612610	 0.320368	 6.275701	 23.508870	-0.552237	 2.046943	 43.361440	-7.136480	 0.808363	 23.024990	 3.427811
 0.011648	 0.039576	 1.193660	 6.335366	 0.067208	-3.671619	-0.444391	-13.910540	-171.266900	 1.555086	-40.720470	 0.784451	 54.993030	 81.456610	-59.465080	-2.366324	 32.116500	-0.081333	-8.575610	-34.311250	-175.010300	 13.633200	-51.380000	 11.336120	 108.055100	 81.627050	-107.678200	 2.360638	 32.752040	 0.097473	-1.769092	 7.713204	 1.086774	 0.702286	 1.832112	 2.415648	-5.381453	-2.608505	-2.530730	-94.311130	 58.988190	 174.590500	 22.396600	 39.424860	-29.769940	-2.335605	-1.165836	-13.069280	 2.186257	-4.642973	-7.971994	-4.851360	 19.693420	-2.814473	-3.853967	 21.823810	 2.174750	-4.796845	 5.680018	 0.139083	-0.010593	-5.162069	 0.295564	-7.120135	 1.996932	 2.113408	 89.597660	 61.914590	 179.556000	-18.621890	 53.221820	 7.045804	-3.066286	-3.285412	 14.590180	-5.498580	 12.264370	-0.402627	 6.248444	 21.834670	-0.600635	 2.208896	 41.946140	-7.279115	 1.182001	 21.325700	 3.249730
 0.011322	 0.014493	 1.189544	 6.595628	 0.631932	-4.067861	-0.677772	-13.275140	-170.997500	 1.733246	-40.915240	 0.904264	 58.567800	 81.915080	-63.174480	-2.360452	 33.017710	-0.102072	-7.740309	-36.731970	-174.384600	 13.439080	-48.518510	 10.731840	 130.349900	 75.381680	-131.331400	 2.355043	 33.566350	 0.116444	-1.989063	 7.090506	 1.303667	 0.746325	 2.317800	 2.558002	-5.456483	-2.841961	-2.593339	-94.449490	 58.967900	 174.299000	 21.475280	 37.835770	-29.925060	-3.152451	-1.138922	-15.172860	 1.875596	-5.030887	-7.373227	-4.830535	 20.123180	-2.822179	-3.830620	 22.118650	 2.151034	-4.776609	 5.917751	 0.125092	 0.016303	-5.255554	 0.337127	-7.134761	 1.931244	 2.053195	 89.471360	 62.028590	 179.248600	-17.627860	 53.877000	 5.185714	-4.517303	-3.731110	 14.766570	-5.861042	 12.849920	-1.820195	 6.206439	 19.581930	-0.687823	 2.468524	 39.514560	-7.505087	 1.665599	 19.056650	 3.033358
 0.010524	-0.014666	 1.185387	 6.816487	 0.775963	-4.340095	-1.020468	-11.839550	-170.917400	 1.932094	-40.825260	 1.032666	 59.125920	 82.143480	-63.826000	-2.347266	 34.827950	-0.144747	-6.633477	-38.169980	-173.701100	 13.053370	-44.432930	 9.765010	 130.645000	 72.287950	-132.544400	 2.342399	 35.229730	 0.156067	-2.383202	 6.966609	 1.463090	 0.759292	 2.728020	 2.659085	-5.471758	-3.121818	-2.646898	-94.518720	 58.925460	 174.158600	 19.819440	 36.345960	-30.621320	-3.401332	-1.109889	-15.695960	 1.567088	-5.621605	-7.361417	-4.834508	 20.397250	-2.926210	-3.804972	 22.439860	 2.124986	-4.745625	 6.280331	 0.103568	 0.069474	-5.347592	 0.351171	-7.072309	 1.917741	 1.866732	 89.391140	 62.011400	 179.055400	-16.487650	 54.378230	 3.093289	-5.750845	-4.054688	 14.683390	-5.862940	 12.883960	-3.165839	 6.175092	 17.456560	-0.708116	 2.732628	 36.815930	-7.731043	 2.101541	 16.945930	 2.852666
 0.008190	-0.054342	 1.179452	 7.107805	 0.737359	-4.305229	-1.715615	-9.640954	-171.281400	 2.403129	-40.684360	 1.336973	 51.555310	 81.789530	-56.413430	-2.309691	 38.939380	-0.247549	-5.922316	-38.954650	-173.417200	 12.056450	-38.145230	 7.997215	 111.605300	 75.463650	-113.773100	 2.337206	 35.856140	 0.171325	-3.065406	 7.006420	 1.422255	 0.780359	 3.247472	 2.662546	-5.475283	-3.451035	-2.692231	-94.531210	 59.080330	 174.106300	 17.494800	 34.754780	-32.552930	-3.413691	-0.997733	-14.220130	 1.101676	-6.807454	-7.901927	-4.863511	 20.558250	-3.142455	-3.775701	 22.803220	 2.095260	-4.698275	 6.830728	 0.070489	 0.148334	-5.446243	 0.309709	-6.917766	 1.974095	 1.638693	 89.356970	 61.790340	 178.981300	-15.166680	 54.692930	 0.505701	-6.967748	-4.317725	 14.421540	-5.773901	 12.480450	-4.492933	 6.175816	 15.032210	-0.545765	 2.952955	 34.372930	-7.916066	 2.582981	 14.546700	 2.669790
